<svg width="490" height="127" viewBox="0 0 490 127" fill="none" xmlns="http://www.w3.org/2000/svg">
<path d="M20.5312 24H15.8438L6.71875 9.03125V24H2.03125V1.25H6.71875L15.8594 16.25V1.25H20.5312V24ZM32.1094 24.3125C29.6302 24.3125 27.6094 23.5521 26.0469 22.0312C24.4948 20.5104 23.7188 18.4844 23.7188 15.9531V15.5156C23.7188 13.8177 24.0469 12.3021 24.7031 10.9688C25.3594 9.625 26.2865 8.59375 27.4844 7.875C28.6927 7.14583 30.0677 6.78125 31.6094 6.78125C33.9219 6.78125 35.7396 7.51042 37.0625 8.96875C38.3958 10.4271 39.0625 12.4948 39.0625 15.1719V17.0156H28.2969C28.4427 18.1198 28.8802 19.0052 29.6094 19.6719C30.349 20.3385 31.2812 20.6719 32.4062 20.6719C34.1458 20.6719 35.5052 20.0417 36.4844 18.7812L38.7031 21.2656C38.026 22.224 37.1094 22.974 35.9531 23.5156C34.7969 24.0469 33.5156 24.3125 32.1094 24.3125ZM31.5938 10.4375C30.6979 10.4375 29.9688 10.7396 29.4062 11.3438C28.8542 11.9479 28.5 12.8125 28.3438 13.9375H34.625V13.5781C34.6042 12.5781 34.3333 11.8073 33.8125 11.2656C33.2917 10.7135 32.5521 10.4375 31.5938 10.4375ZM56.3438 17.8594L58.5625 7.09375H62.9219L58.6094 24H54.8281L51.625 13.3594L48.4219 24H44.6562L40.3438 7.09375H44.7031L46.9062 17.8438L50 7.09375H53.2656L56.3438 17.8594ZM74.3281 19.3281C74.3281 18.776 74.0521 18.3438 73.5 18.0312C72.9583 17.7083 72.0833 17.4219 70.875 17.1719C66.8542 16.3281 64.8438 14.6198 64.8438 12.0469C64.8438 10.5469 65.4635 9.29688 66.7031 8.29688C67.9531 7.28646 69.5833 6.78125 71.5938 6.78125C73.7396 6.78125 75.4531 7.28646 76.7344 8.29688C78.026 9.30729 78.6719 10.6198 78.6719 12.2344H74.1562C74.1562 11.5885 73.9479 11.0573 73.5312 10.6406C73.1146 10.2135 72.4635 10 71.5781 10C70.8177 10 70.2292 10.1719 69.8125 10.5156C69.3958 10.8594 69.1875 11.2969 69.1875 11.8281C69.1875 12.3281 69.4219 12.7344 69.8906 13.0469C70.3698 13.349 71.1719 13.6146 72.2969 13.8438C73.4219 14.0625 74.3698 14.3125 75.1406 14.5938C77.526 15.4688 78.7188 16.9844 78.7188 19.1406C78.7188 20.6823 78.0573 21.9323 76.7344 22.8906C75.4115 23.8385 73.7031 24.3125 71.6094 24.3125C70.1927 24.3125 68.9323 24.0625 67.8281 23.5625C66.7344 23.0521 65.875 22.3594 65.25 21.4844C64.625 20.599 64.3125 19.6458 64.3125 18.625H68.5938C68.6354 19.4271 68.9323 20.0417 69.4844 20.4688C70.0365 20.8958 70.776 21.1094 71.7031 21.1094C72.5677 21.1094 73.2188 20.9479 73.6562 20.625C74.1042 20.2917 74.3281 19.8594 74.3281 19.3281ZM106.094 5.04688H99.125V24H94.4375V5.04688H87.5625V1.25H106.094V5.04688ZM113.25 24H108.719V7.09375H113.25V24ZM108.453 2.71875C108.453 2.04167 108.677 1.48438 109.125 1.04688C109.583 0.609375 110.203 0.390625 110.984 0.390625C111.755 0.390625 112.37 0.609375 112.828 1.04688C113.286 1.48438 113.516 2.04167 113.516 2.71875C113.516 3.40625 113.281 3.96875 112.812 4.40625C112.354 4.84375 111.745 5.0625 110.984 5.0625C110.224 5.0625 109.609 4.84375 109.141 4.40625C108.682 3.96875 108.453 3.40625 108.453 2.71875ZM122.391 2.9375V7.09375H125.281V10.4062H122.391V18.8438C122.391 19.4688 122.51 19.9167 122.75 20.1875C122.99 20.4583 123.448 20.5938 124.125 20.5938C124.625 20.5938 125.068 20.5573 125.453 20.4844V23.9062C124.568 24.1771 123.656 24.3125 122.719 24.3125C119.552 24.3125 117.938 22.7135 117.875 19.5156V10.4062H115.406V7.09375H117.875V2.9375H122.391ZM132.562 24H128.031V0H132.562V24ZM144.078 24.3125C141.599 24.3125 139.578 23.5521 138.016 22.0312C136.464 20.5104 135.688 18.4844 135.688 15.9531V15.5156C135.688 13.8177 136.016 12.3021 136.672 10.9688C137.328 9.625 138.255 8.59375 139.453 7.875C140.661 7.14583 142.036 6.78125 143.578 6.78125C145.891 6.78125 147.708 7.51042 149.031 8.96875C150.365 10.4271 151.031 12.4948 151.031 15.1719V17.0156H140.266C140.411 18.1198 140.849 19.0052 141.578 19.6719C142.318 20.3385 143.25 20.6719 144.375 20.6719C146.115 20.6719 147.474 20.0417 148.453 18.7812L150.672 21.2656C149.995 22.224 149.078 22.974 147.922 23.5156C146.766 24.0469 145.484 24.3125 144.078 24.3125ZM143.562 10.4375C142.667 10.4375 141.938 10.7396 141.375 11.3438C140.823 11.9479 140.469 12.8125 140.312 13.9375H146.594V13.5781C146.573 12.5781 146.302 11.8073 145.781 11.2656C145.26 10.7135 144.521 10.4375 143.562 10.4375ZM166.562 20.2344H176.516V24H161.875V1.25H166.562V20.2344ZM178.219 15.3906C178.219 13.7135 178.542 12.2188 179.188 10.9062C179.833 9.59375 180.76 8.57812 181.969 7.85938C183.188 7.14062 184.599 6.78125 186.203 6.78125C188.484 6.78125 190.344 7.47917 191.781 8.875C193.229 10.2708 194.036 12.1667 194.203 14.5625L194.234 15.7188C194.234 18.3125 193.51 20.3958 192.062 21.9688C190.615 23.5312 188.672 24.3125 186.234 24.3125C183.797 24.3125 181.849 23.5312 180.391 21.9688C178.943 20.4062 178.219 18.2812 178.219 15.5938V15.3906ZM182.734 15.7188C182.734 17.3229 183.036 18.5521 183.641 19.4062C184.245 20.25 185.109 20.6719 186.234 20.6719C187.328 20.6719 188.182 20.2552 188.797 19.4219C189.411 18.5781 189.719 17.2344 189.719 15.3906C189.719 13.8177 189.411 12.599 188.797 11.7344C188.182 10.8698 187.318 10.4375 186.203 10.4375C185.099 10.4375 184.245 10.8698 183.641 11.7344C183.036 12.5885 182.734 13.9167 182.734 15.7188ZM206.516 11.3281C205.901 11.2448 205.359 11.2031 204.891 11.2031C203.182 11.2031 202.062 11.7812 201.531 12.9375V24H197.016V7.09375H201.281L201.406 9.10938C202.312 7.55729 203.568 6.78125 205.172 6.78125C205.672 6.78125 206.141 6.84896 206.578 6.98438L206.516 11.3281ZM216.172 24.3125C213.693 24.3125 211.672 23.5521 210.109 22.0312C208.557 20.5104 207.781 18.4844 207.781 15.9531V15.5156C207.781 13.8177 208.109 12.3021 208.766 10.9688C209.422 9.625 210.349 8.59375 211.547 7.875C212.755 7.14583 214.13 6.78125 215.672 6.78125C217.984 6.78125 219.802 7.51042 221.125 8.96875C222.458 10.4271 223.125 12.4948 223.125 15.1719V17.0156H212.359C212.505 18.1198 212.943 19.0052 213.672 19.6719C214.411 20.3385 215.344 20.6719 216.469 20.6719C218.208 20.6719 219.568 20.0417 220.547 18.7812L222.766 21.2656C222.089 22.224 221.172 22.974 220.016 23.5156C218.859 24.0469 217.578 24.3125 216.172 24.3125ZM215.656 10.4375C214.76 10.4375 214.031 10.7396 213.469 11.3438C212.917 11.9479 212.562 12.8125 212.406 13.9375H218.688V13.5781C218.667 12.5781 218.396 11.8073 217.875 11.2656C217.354 10.7135 216.615 10.4375 215.656 10.4375ZM229.938 7.09375L230.078 8.98438C231.276 7.51562 232.896 6.78125 234.938 6.78125C237.115 6.78125 238.609 7.64062 239.422 9.35938C240.609 7.64062 242.302 6.78125 244.5 6.78125C246.333 6.78125 247.698 7.31771 248.594 8.39062C249.49 9.45312 249.938 11.0573 249.938 13.2031V24H245.406V13.2188C245.406 12.2604 245.219 11.5625 244.844 11.125C244.469 10.6771 243.807 10.4531 242.859 10.4531C241.505 10.4531 240.568 11.099 240.047 12.3906L240.062 24H235.547V13.2344C235.547 12.2552 235.354 11.5469 234.969 11.1094C234.583 10.6719 233.927 10.4531 233 10.4531C231.719 10.4531 230.792 10.9844 230.219 12.0469V24H225.703V7.09375H229.938ZM266.672 24H261.984V1.25H266.672V24ZM285.953 15.7031C285.953 18.3073 285.359 20.3958 284.172 21.9688C282.995 23.5312 281.401 24.3125 279.391 24.3125C277.682 24.3125 276.302 23.7188 275.25 22.5312V30.5H270.734V7.09375H274.922L275.078 8.75C276.172 7.4375 277.599 6.78125 279.359 6.78125C281.443 6.78125 283.062 7.55208 284.219 9.09375C285.375 10.6354 285.953 12.7604 285.953 15.4688V15.7031ZM281.438 15.375C281.438 13.8021 281.156 12.5885 280.594 11.7344C280.042 10.8802 279.234 10.4531 278.172 10.4531C276.755 10.4531 275.781 10.9948 275.25 12.0781V19C275.802 20.1146 276.786 20.6719 278.203 20.6719C280.359 20.6719 281.438 18.9062 281.438 15.375ZM297.922 19.3281C297.922 18.776 297.646 18.3438 297.094 18.0312C296.552 17.7083 295.677 17.4219 294.469 17.1719C290.448 16.3281 288.438 14.6198 288.438 12.0469C288.438 10.5469 289.057 9.29688 290.297 8.29688C291.547 7.28646 293.177 6.78125 295.188 6.78125C297.333 6.78125 299.047 7.28646 300.328 8.29688C301.62 9.30729 302.266 10.6198 302.266 12.2344H297.75C297.75 11.5885 297.542 11.0573 297.125 10.6406C296.708 10.2135 296.057 10 295.172 10C294.411 10 293.823 10.1719 293.406 10.5156C292.99 10.8594 292.781 11.2969 292.781 11.8281C292.781 12.3281 293.016 12.7344 293.484 13.0469C293.964 13.349 294.766 13.6146 295.891 13.8438C297.016 14.0625 297.964 14.3125 298.734 14.5938C301.12 15.4688 302.312 16.9844 302.312 19.1406C302.312 20.6823 301.651 21.9323 300.328 22.8906C299.005 23.8385 297.297 24.3125 295.203 24.3125C293.786 24.3125 292.526 24.0625 291.422 23.5625C290.328 23.0521 289.469 22.3594 288.844 21.4844C288.219 20.599 287.906 19.6458 287.906 18.625H292.188C292.229 19.4271 292.526 20.0417 293.078 20.4688C293.63 20.8958 294.37 21.1094 295.297 21.1094C296.161 21.1094 296.812 20.9479 297.25 20.625C297.698 20.2917 297.922 19.8594 297.922 19.3281ZM315.359 22.2812C314.245 23.6354 312.703 24.3125 310.734 24.3125C308.922 24.3125 307.536 23.7917 306.578 22.75C305.63 21.7083 305.146 20.1823 305.125 18.1719V7.09375H309.641V18.0156C309.641 19.776 310.443 20.6562 312.047 20.6562C313.578 20.6562 314.63 20.125 315.203 19.0625V7.09375H319.734V24H315.484L315.359 22.2812ZM327.375 7.09375L327.516 8.98438C328.714 7.51562 330.333 6.78125 332.375 6.78125C334.552 6.78125 336.047 7.64062 336.859 9.35938C338.047 7.64062 339.74 6.78125 341.938 6.78125C343.771 6.78125 345.135 7.31771 346.031 8.39062C346.927 9.45312 347.375 11.0573 347.375 13.2031V24H342.844V13.2188C342.844 12.2604 342.656 11.5625 342.281 11.125C341.906 10.6771 341.245 10.4531 340.297 10.4531C338.943 10.4531 338.005 11.099 337.484 12.3906L337.5 24H332.984V13.2344C332.984 12.2552 332.792 11.5469 332.406 11.1094C332.021 10.6719 331.365 10.4531 330.438 10.4531C329.156 10.4531 328.229 10.9844 327.656 12.0469V24H323.141V7.09375H327.375ZM359.125 24V1.25H366.125C368.125 1.25 369.911 1.70312 371.484 2.60938C373.068 3.50521 374.302 4.78646 375.188 6.45312C376.073 8.10938 376.516 9.99479 376.516 12.1094V13.1562C376.516 15.2708 376.078 17.151 375.203 18.7969C374.339 20.4427 373.115 21.7188 371.531 22.625C369.948 23.5312 368.161 23.9896 366.172 24H359.125ZM363.812 5.04688V20.2344H366.078C367.911 20.2344 369.312 19.6354 370.281 18.4375C371.25 17.2396 371.745 15.526 371.766 13.2969V12.0938C371.766 9.78125 371.286 8.03125 370.328 6.84375C369.37 5.64583 367.969 5.04688 366.125 5.04688H363.812ZM378.938 15.3906C378.938 13.7135 379.26 12.2188 379.906 10.9062C380.552 9.59375 381.479 8.57812 382.688 7.85938C383.906 7.14062 385.318 6.78125 386.922 6.78125C389.203 6.78125 391.062 7.47917 392.5 8.875C393.948 10.2708 394.755 12.1667 394.922 14.5625L394.953 15.7188C394.953 18.3125 394.229 20.3958 392.781 21.9688C391.333 23.5312 389.391 24.3125 386.953 24.3125C384.516 24.3125 382.568 23.5312 381.109 21.9688C379.661 20.4062 378.938 18.2812 378.938 15.5938V15.3906ZM383.453 15.7188C383.453 17.3229 383.755 18.5521 384.359 19.4062C384.964 20.25 385.828 20.6719 386.953 20.6719C388.047 20.6719 388.901 20.2552 389.516 19.4219C390.13 18.5781 390.438 17.2344 390.438 15.3906C390.438 13.8177 390.13 12.599 389.516 11.7344C388.901 10.8698 388.036 10.4375 386.922 10.4375C385.818 10.4375 384.964 10.8698 384.359 11.7344C383.755 12.5885 383.453 13.9167 383.453 15.7188ZM402.5 24H397.969V0H402.5V24ZM405.531 15.3906C405.531 13.7135 405.854 12.2188 406.5 10.9062C407.146 9.59375 408.073 8.57812 409.281 7.85938C410.5 7.14062 411.911 6.78125 413.516 6.78125C415.797 6.78125 417.656 7.47917 419.094 8.875C420.542 10.2708 421.349 12.1667 421.516 14.5625L421.547 15.7188C421.547 18.3125 420.823 20.3958 419.375 21.9688C417.927 23.5312 415.984 24.3125 413.547 24.3125C411.109 24.3125 409.161 23.5312 407.703 21.9688C406.255 20.4062 405.531 18.2812 405.531 15.5938V15.3906ZM410.047 15.7188C410.047 17.3229 410.349 18.5521 410.953 19.4062C411.557 20.25 412.422 20.6719 413.547 20.6719C414.641 20.6719 415.495 20.2552 416.109 19.4219C416.724 18.5781 417.031 17.2344 417.031 15.3906C417.031 13.8177 416.724 12.599 416.109 11.7344C415.495 10.8698 414.63 10.4375 413.516 10.4375C412.411 10.4375 411.557 10.8698 410.953 11.7344C410.349 12.5885 410.047 13.9167 410.047 15.7188ZM433.828 11.3281C433.214 11.2448 432.672 11.2031 432.203 11.2031C430.495 11.2031 429.375 11.7812 428.844 12.9375V24H424.328V7.09375H428.594L428.719 9.10938C429.625 7.55729 430.88 6.78125 432.484 6.78125C432.984 6.78125 433.453 6.84896 433.891 6.98438L433.828 11.3281ZM456.078 18.0312C456.078 17.1458 455.766 16.4688 455.141 16C454.516 15.5208 453.391 15.0208 451.766 14.5C450.141 13.9688 448.854 13.4479 447.906 12.9375C445.323 11.5417 444.031 9.66146 444.031 7.29688C444.031 6.06771 444.375 4.97396 445.062 4.01562C445.76 3.04688 446.755 2.29167 448.047 1.75C449.349 1.20833 450.807 0.9375 452.422 0.9375C454.047 0.9375 455.495 1.23438 456.766 1.82812C458.036 2.41146 459.021 3.23958 459.719 4.3125C460.427 5.38542 460.781 6.60417 460.781 7.96875H456.094C456.094 6.92708 455.766 6.11979 455.109 5.54688C454.453 4.96354 453.531 4.67188 452.344 4.67188C451.198 4.67188 450.307 4.91667 449.672 5.40625C449.036 5.88542 448.719 6.52083 448.719 7.3125C448.719 8.05208 449.089 8.67188 449.828 9.17188C450.578 9.67188 451.677 10.1406 453.125 10.5781C455.792 11.3802 457.734 12.375 458.953 13.5625C460.172 14.75 460.781 16.2292 460.781 18C460.781 19.9688 460.036 21.5156 458.547 22.6406C457.057 23.7552 455.052 24.3125 452.531 24.3125C450.781 24.3125 449.188 23.9948 447.75 23.3594C446.312 22.7135 445.214 21.8333 444.453 20.7188C443.703 19.6042 443.328 18.3125 443.328 16.8438H448.031C448.031 19.3542 449.531 20.6094 452.531 20.6094C453.646 20.6094 454.516 20.3854 455.141 19.9375C455.766 19.4792 456.078 18.8438 456.078 18.0312ZM468.438 24H463.906V7.09375H468.438V24ZM463.641 2.71875C463.641 2.04167 463.865 1.48438 464.312 1.04688C464.771 0.609375 465.391 0.390625 466.172 0.390625C466.943 0.390625 467.557 0.609375 468.016 1.04688C468.474 1.48438 468.703 2.04167 468.703 2.71875C468.703 3.40625 468.469 3.96875 468 4.40625C467.542 4.84375 466.932 5.0625 466.172 5.0625C465.411 5.0625 464.797 4.84375 464.328 4.40625C463.87 3.96875 463.641 3.40625 463.641 2.71875ZM477.578 2.9375V7.09375H480.469V10.4062H477.578V18.8438C477.578 19.4688 477.698 19.9167 477.938 20.1875C478.177 20.4583 478.635 20.5938 479.312 20.5938C479.812 20.5938 480.255 20.5573 480.641 20.4844V23.9062C479.755 24.1771 478.844 24.3125 477.906 24.3125C474.74 24.3125 473.125 22.7135 473.062 19.5156V10.4062H470.594V7.09375H473.062V2.9375H477.578ZM14.875 67.3125H6.65625L5.09375 72H0.109375L8.57812 49.25H12.9219L21.4375 72H16.4531L14.875 67.3125ZM7.92188 63.5156H13.6094L10.75 55L7.92188 63.5156ZM26.75 55.0938L26.8906 56.9844C28.0885 55.5156 29.7083 54.7812 31.75 54.7812C33.9271 54.7812 35.4219 55.6406 36.2344 57.3594C37.4219 55.6406 39.1146 54.7812 41.3125 54.7812C43.1458 54.7812 44.5104 55.3177 45.4062 56.3906C46.3021 57.4531 46.75 59.0573 46.75 61.2031V72H42.2188V61.2188C42.2188 60.2604 42.0312 59.5625 41.6562 59.125C41.2812 58.6771 40.6198 58.4531 39.6719 58.4531C38.3177 58.4531 37.3802 59.099 36.8594 60.3906L36.875 72H32.3594V61.2344C32.3594 60.2552 32.1667 59.5469 31.7812 59.1094C31.3958 58.6719 30.7396 58.4531 29.8125 58.4531C28.5312 58.4531 27.6042 58.9844 27.0312 60.0469V72H22.5156V55.0938H26.75ZM58.0156 72.3125C55.5365 72.3125 53.5156 71.5521 51.9531 70.0312C50.401 68.5104 49.625 66.4844 49.625 63.9531V63.5156C49.625 61.8177 49.9531 60.3021 50.6094 58.9688C51.2656 57.625 52.1927 56.5938 53.3906 55.875C54.599 55.1458 55.974 54.7812 57.5156 54.7812C59.8281 54.7812 61.6458 55.5104 62.9688 56.9688C64.3021 58.4271 64.9688 60.4948 64.9688 63.1719V65.0156H54.2031C54.349 66.1198 54.7865 67.0052 55.5156 67.6719C56.2552 68.3385 57.1875 68.6719 58.3125 68.6719C60.0521 68.6719 61.4115 68.0417 62.3906 66.7812L64.6094 69.2656C63.9323 70.224 63.0156 70.974 61.8594 71.5156C60.7031 72.0469 59.4219 72.3125 58.0156 72.3125ZM57.5 58.4375C56.6042 58.4375 55.875 58.7396 55.3125 59.3438C54.7604 59.9479 54.4062 60.8125 54.25 61.9375H60.5312V61.5781C60.5104 60.5781 60.2396 59.8073 59.7188 59.2656C59.1979 58.7135 58.4583 58.4375 57.5 58.4375ZM72.9531 50.9375V55.0938H75.8438V58.4062H72.9531V66.8438C72.9531 67.4688 73.0729 67.9167 73.3125 68.1875C73.5521 68.4583 74.0104 68.5938 74.6875 68.5938C75.1875 68.5938 75.6302 68.5573 76.0156 68.4844V71.9062C75.1302 72.1771 74.2188 72.3125 73.2812 72.3125C70.1146 72.3125 68.5 70.7135 68.4375 67.5156V58.4062H65.9688V55.0938H68.4375V50.9375H72.9531ZM91.3125 68.2344H101.266V72H86.625V49.25H91.3125V68.2344ZM102.969 63.3906C102.969 61.7135 103.292 60.2188 103.938 58.9062C104.583 57.5938 105.51 56.5781 106.719 55.8594C107.938 55.1406 109.349 54.7812 110.953 54.7812C113.234 54.7812 115.094 55.4792 116.531 56.875C117.979 58.2708 118.786 60.1667 118.953 62.5625L118.984 63.7188C118.984 66.3125 118.26 68.3958 116.812 69.9688C115.365 71.5312 113.422 72.3125 110.984 72.3125C108.547 72.3125 106.599 71.5312 105.141 69.9688C103.693 68.4062 102.969 66.2812 102.969 63.5938V63.3906ZM107.484 63.7188C107.484 65.3229 107.786 66.5521 108.391 67.4062C108.995 68.25 109.859 68.6719 110.984 68.6719C112.078 68.6719 112.932 68.2552 113.547 67.4219C114.161 66.5781 114.469 65.2344 114.469 63.3906C114.469 61.8177 114.161 60.599 113.547 59.7344C112.932 58.8698 112.068 58.4375 110.953 58.4375C109.849 58.4375 108.995 58.8698 108.391 59.7344C107.786 60.5885 107.484 61.9167 107.484 63.7188ZM131.266 59.3281C130.651 59.2448 130.109 59.2031 129.641 59.2031C127.932 59.2031 126.812 59.7812 126.281 60.9375V72H121.766V55.0938H126.031L126.156 57.1094C127.062 55.5573 128.318 54.7812 129.922 54.7812C130.422 54.7812 130.891 54.849 131.328 54.9844L131.266 59.3281ZM140.922 72.3125C138.443 72.3125 136.422 71.5521 134.859 70.0312C133.307 68.5104 132.531 66.4844 132.531 63.9531V63.5156C132.531 61.8177 132.859 60.3021 133.516 58.9688C134.172 57.625 135.099 56.5938 136.297 55.875C137.505 55.1458 138.88 54.7812 140.422 54.7812C142.734 54.7812 144.552 55.5104 145.875 56.9688C147.208 58.4271 147.875 60.4948 147.875 63.1719V65.0156H137.109C137.255 66.1198 137.693 67.0052 138.422 67.6719C139.161 68.3385 140.094 68.6719 141.219 68.6719C142.958 68.6719 144.318 68.0417 145.297 66.7812L147.516 69.2656C146.839 70.224 145.922 70.974 144.766 71.5156C143.609 72.0469 142.328 72.3125 140.922 72.3125ZM140.406 58.4375C139.51 58.4375 138.781 58.7396 138.219 59.3438C137.667 59.9479 137.312 60.8125 137.156 61.9375H143.438V61.5781C143.417 60.5781 143.146 59.8073 142.625 59.2656C142.104 58.7135 141.365 58.4375 140.406 58.4375ZM154.688 55.0938L154.828 56.9844C156.026 55.5156 157.646 54.7812 159.688 54.7812C161.865 54.7812 163.359 55.6406 164.172 57.3594C165.359 55.6406 167.052 54.7812 169.25 54.7812C171.083 54.7812 172.448 55.3177 173.344 56.3906C174.24 57.4531 174.688 59.0573 174.688 61.2031V72H170.156V61.2188C170.156 60.2604 169.969 59.5625 169.594 59.125C169.219 58.6771 168.557 58.4531 167.609 58.4531C166.255 58.4531 165.318 59.099 164.797 60.3906L164.812 72H160.297V61.2344C160.297 60.2552 160.104 59.5469 159.719 59.1094C159.333 58.6719 158.677 58.4531 157.75 58.4531C156.469 58.4531 155.542 58.9844 154.969 60.0469V72H150.453V55.0938H154.688ZM191.422 72H186.734V49.25H191.422V72ZM210.703 63.7031C210.703 66.3073 210.109 68.3958 208.922 69.9688C207.745 71.5312 206.151 72.3125 204.141 72.3125C202.432 72.3125 201.052 71.7188 200 70.5312V78.5H195.484V55.0938H199.672L199.828 56.75C200.922 55.4375 202.349 54.7812 204.109 54.7812C206.193 54.7812 207.812 55.5521 208.969 57.0938C210.125 58.6354 210.703 60.7604 210.703 63.4688V63.7031ZM206.188 63.375C206.188 61.8021 205.906 60.5885 205.344 59.7344C204.792 58.8802 203.984 58.4531 202.922 58.4531C201.505 58.4531 200.531 58.9948 200 60.0781V67C200.552 68.1146 201.536 68.6719 202.953 68.6719C205.109 68.6719 206.188 66.9062 206.188 63.375ZM222.672 67.3281C222.672 66.776 222.396 66.3438 221.844 66.0312C221.302 65.7083 220.427 65.4219 219.219 65.1719C215.198 64.3281 213.188 62.6198 213.188 60.0469C213.188 58.5469 213.807 57.2969 215.047 56.2969C216.297 55.2865 217.927 54.7812 219.938 54.7812C222.083 54.7812 223.797 55.2865 225.078 56.2969C226.37 57.3073 227.016 58.6198 227.016 60.2344H222.5C222.5 59.5885 222.292 59.0573 221.875 58.6406C221.458 58.2135 220.807 58 219.922 58C219.161 58 218.573 58.1719 218.156 58.5156C217.74 58.8594 217.531 59.2969 217.531 59.8281C217.531 60.3281 217.766 60.7344 218.234 61.0469C218.714 61.349 219.516 61.6146 220.641 61.8438C221.766 62.0625 222.714 62.3125 223.484 62.5938C225.87 63.4688 227.062 64.9844 227.062 67.1406C227.062 68.6823 226.401 69.9323 225.078 70.8906C223.755 71.8385 222.047 72.3125 219.953 72.3125C218.536 72.3125 217.276 72.0625 216.172 71.5625C215.078 71.0521 214.219 70.3594 213.594 69.4844C212.969 68.599 212.656 67.6458 212.656 66.625H216.938C216.979 67.4271 217.276 68.0417 217.828 68.4688C218.38 68.8958 219.12 69.1094 220.047 69.1094C220.911 69.1094 221.562 68.9479 222 68.625C222.448 68.2917 222.672 67.8594 222.672 67.3281ZM240.109 70.2812C238.995 71.6354 237.453 72.3125 235.484 72.3125C233.672 72.3125 232.286 71.7917 231.328 70.75C230.38 69.7083 229.896 68.1823 229.875 66.1719V55.0938H234.391V66.0156C234.391 67.776 235.193 68.6562 236.797 68.6562C238.328 68.6562 239.38 68.125 239.953 67.0625V55.0938H244.484V72H240.234L240.109 70.2812ZM252.125 55.0938L252.266 56.9844C253.464 55.5156 255.083 54.7812 257.125 54.7812C259.302 54.7812 260.797 55.6406 261.609 57.3594C262.797 55.6406 264.49 54.7812 266.688 54.7812C268.521 54.7812 269.885 55.3177 270.781 56.3906C271.677 57.4531 272.125 59.0573 272.125 61.2031V72H267.594V61.2188C267.594 60.2604 267.406 59.5625 267.031 59.125C266.656 58.6771 265.995 58.4531 265.047 58.4531C263.693 58.4531 262.755 59.099 262.234 60.3906L262.25 72H257.734V61.2344C257.734 60.2552 257.542 59.5469 257.156 59.1094C256.771 58.6719 256.115 58.4531 255.188 58.4531C253.906 58.4531 252.979 58.9844 252.406 60.0469V72H247.891V55.0938H252.125ZM283.875 72V49.25H290.875C292.875 49.25 294.661 49.7031 296.234 50.6094C297.818 51.5052 299.052 52.7865 299.938 54.4531C300.823 56.1094 301.266 57.9948 301.266 60.1094V61.1562C301.266 63.2708 300.828 65.151 299.953 66.7969C299.089 68.4427 297.865 69.7188 296.281 70.625C294.698 71.5312 292.911 71.9896 290.922 72H283.875ZM288.562 53.0469V68.2344H290.828C292.661 68.2344 294.062 67.6354 295.031 66.4375C296 65.2396 296.495 63.526 296.516 61.2969V60.0938C296.516 57.7812 296.036 56.0312 295.078 54.8438C294.12 53.6458 292.719 53.0469 290.875 53.0469H288.562ZM303.688 63.3906C303.688 61.7135 304.01 60.2188 304.656 58.9062C305.302 57.5938 306.229 56.5781 307.438 55.8594C308.656 55.1406 310.068 54.7812 311.672 54.7812C313.953 54.7812 315.812 55.4792 317.25 56.875C318.698 58.2708 319.505 60.1667 319.672 62.5625L319.703 63.7188C319.703 66.3125 318.979 68.3958 317.531 69.9688C316.083 71.5312 314.141 72.3125 311.703 72.3125C309.266 72.3125 307.318 71.5312 305.859 69.9688C304.411 68.4062 303.688 66.2812 303.688 63.5938V63.3906ZM308.203 63.7188C308.203 65.3229 308.505 66.5521 309.109 67.4062C309.714 68.25 310.578 68.6719 311.703 68.6719C312.797 68.6719 313.651 68.2552 314.266 67.4219C314.88 66.5781 315.188 65.2344 315.188 63.3906C315.188 61.8177 314.88 60.599 314.266 59.7344C313.651 58.8698 312.786 58.4375 311.672 58.4375C310.568 58.4375 309.714 58.8698 309.109 59.7344C308.505 60.5885 308.203 61.9167 308.203 63.7188ZM327.25 72H322.719V48H327.25V72ZM330.281 63.3906C330.281 61.7135 330.604 60.2188 331.25 58.9062C331.896 57.5938 332.823 56.5781 334.031 55.8594C335.25 55.1406 336.661 54.7812 338.266 54.7812C340.547 54.7812 342.406 55.4792 343.844 56.875C345.292 58.2708 346.099 60.1667 346.266 62.5625L346.297 63.7188C346.297 66.3125 345.573 68.3958 344.125 69.9688C342.677 71.5312 340.734 72.3125 338.297 72.3125C335.859 72.3125 333.911 71.5312 332.453 69.9688C331.005 68.4062 330.281 66.2812 330.281 63.5938V63.3906ZM334.797 63.7188C334.797 65.3229 335.099 66.5521 335.703 67.4062C336.307 68.25 337.172 68.6719 338.297 68.6719C339.391 68.6719 340.245 68.2552 340.859 67.4219C341.474 66.5781 341.781 65.2344 341.781 63.3906C341.781 61.8177 341.474 60.599 340.859 59.7344C340.245 58.8698 339.38 58.4375 338.266 58.4375C337.161 58.4375 336.307 58.8698 335.703 59.7344C335.099 60.5885 334.797 61.9167 334.797 63.7188ZM358.578 59.3281C357.964 59.2448 357.422 59.2031 356.953 59.2031C355.245 59.2031 354.125 59.7812 353.594 60.9375V72H349.078V55.0938H353.344L353.469 57.1094C354.375 55.5573 355.63 54.7812 357.234 54.7812C357.734 54.7812 358.203 54.849 358.641 54.9844L358.578 59.3281ZM380.828 66.0312C380.828 65.1458 380.516 64.4688 379.891 64C379.266 63.5208 378.141 63.0208 376.516 62.5C374.891 61.9688 373.604 61.4479 372.656 60.9375C370.073 59.5417 368.781 57.6615 368.781 55.2969C368.781 54.0677 369.125 52.974 369.812 52.0156C370.51 51.0469 371.505 50.2917 372.797 49.75C374.099 49.2083 375.557 48.9375 377.172 48.9375C378.797 48.9375 380.245 49.2344 381.516 49.8281C382.786 50.4115 383.771 51.2396 384.469 52.3125C385.177 53.3854 385.531 54.6042 385.531 55.9688H380.844C380.844 54.9271 380.516 54.1198 379.859 53.5469C379.203 52.9635 378.281 52.6719 377.094 52.6719C375.948 52.6719 375.057 52.9167 374.422 53.4062C373.786 53.8854 373.469 54.5208 373.469 55.3125C373.469 56.0521 373.839 56.6719 374.578 57.1719C375.328 57.6719 376.427 58.1406 377.875 58.5781C380.542 59.3802 382.484 60.375 383.703 61.5625C384.922 62.75 385.531 64.2292 385.531 66C385.531 67.9688 384.786 69.5156 383.297 70.6406C381.807 71.7552 379.802 72.3125 377.281 72.3125C375.531 72.3125 373.938 71.9948 372.5 71.3594C371.062 70.7135 369.964 69.8333 369.203 68.7188C368.453 67.6042 368.078 66.3125 368.078 64.8438H372.781C372.781 67.3542 374.281 68.6094 377.281 68.6094C378.396 68.6094 379.266 68.3854 379.891 67.9375C380.516 67.4792 380.828 66.8438 380.828 66.0312ZM393.188 72H388.656V55.0938H393.188V72ZM388.391 50.7188C388.391 50.0417 388.615 49.4844 389.062 49.0469C389.521 48.6094 390.141 48.3906 390.922 48.3906C391.693 48.3906 392.307 48.6094 392.766 49.0469C393.224 49.4844 393.453 50.0417 393.453 50.7188C393.453 51.4062 393.219 51.9688 392.75 52.4062C392.292 52.8438 391.682 53.0625 390.922 53.0625C390.161 53.0625 389.547 52.8438 389.078 52.4062C388.62 51.9688 388.391 51.4062 388.391 50.7188ZM402.328 50.9375V55.0938H405.219V58.4062H402.328V66.8438C402.328 67.4688 402.448 67.9167 402.688 68.1875C402.927 68.4583 403.385 68.5938 404.062 68.5938C404.562 68.5938 405.005 68.5573 405.391 68.4844V71.9062C404.505 72.1771 403.594 72.3125 402.656 72.3125C399.49 72.3125 397.875 70.7135 397.812 67.5156V58.4062H395.344V55.0938H397.812V50.9375H402.328ZM428.844 67.3125H420.625L419.062 72H414.078L422.547 49.25H426.891L435.406 72H430.422L428.844 67.3125ZM421.891 63.5156H427.578L424.719 55L421.891 63.5156ZM440.719 55.0938L440.859 56.9844C442.057 55.5156 443.677 54.7812 445.719 54.7812C447.896 54.7812 449.391 55.6406 450.203 57.3594C451.391 55.6406 453.083 54.7812 455.281 54.7812C457.115 54.7812 458.479 55.3177 459.375 56.3906C460.271 57.4531 460.719 59.0573 460.719 61.2031V72H456.188V61.2188C456.188 60.2604 456 59.5625 455.625 59.125C455.25 58.6771 454.589 58.4531 453.641 58.4531C452.286 58.4531 451.349 59.099 450.828 60.3906L450.844 72H446.328V61.2344C446.328 60.2552 446.135 59.5469 445.75 59.1094C445.365 58.6719 444.708 58.4531 443.781 58.4531C442.5 58.4531 441.573 58.9844 441 60.0469V72H436.484V55.0938H440.719ZM471.984 72.3125C469.505 72.3125 467.484 71.5521 465.922 70.0312C464.37 68.5104 463.594 66.4844 463.594 63.9531V63.5156C463.594 61.8177 463.922 60.3021 464.578 58.9688C465.234 57.625 466.161 56.5938 467.359 55.875C468.568 55.1458 469.943 54.7812 471.484 54.7812C473.797 54.7812 475.615 55.5104 476.938 56.9688C478.271 58.4271 478.938 60.4948 478.938 63.1719V65.0156H468.172C468.318 66.1198 468.755 67.0052 469.484 67.6719C470.224 68.3385 471.156 68.6719 472.281 68.6719C474.021 68.6719 475.38 68.0417 476.359 66.7812L478.578 69.2656C477.901 70.224 476.984 70.974 475.828 71.5156C474.672 72.0469 473.391 72.3125 471.984 72.3125ZM471.469 58.4375C470.573 58.4375 469.844 58.7396 469.281 59.3438C468.729 59.9479 468.375 60.8125 468.219 61.9375H474.5V61.5781C474.479 60.5781 474.208 59.8073 473.688 59.2656C473.167 58.7135 472.427 58.4375 471.469 58.4375ZM486.922 50.9375V55.0938H489.812V58.4062H486.922V66.8438C486.922 67.4688 487.042 67.9167 487.281 68.1875C487.521 68.4583 487.979 68.5938 488.656 68.5938C489.156 68.5938 489.599 68.5573 489.984 68.4844V71.9062C489.099 72.1771 488.188 72.3125 487.25 72.3125C484.083 72.3125 482.469 70.7135 482.406 67.5156V58.4062H479.938V55.0938H482.406V50.9375H486.922ZM6.71875 116.234H16.6719V120H2.03125V97.25H6.71875V116.234ZM18.375 111.391C18.375 109.714 18.6979 108.219 19.3438 106.906C19.9896 105.594 20.9167 104.578 22.125 103.859C23.3438 103.141 24.7552 102.781 26.3594 102.781C28.6406 102.781 30.5 103.479 31.9375 104.875C33.3854 106.271 34.1927 108.167 34.3594 110.562L34.3906 111.719C34.3906 114.312 33.6667 116.396 32.2188 117.969C30.7708 119.531 28.8281 120.312 26.3906 120.312C23.9531 120.312 22.0052 119.531 20.5469 117.969C19.099 116.406 18.375 114.281 18.375 111.594V111.391ZM22.8906 111.719C22.8906 113.323 23.1927 114.552 23.7969 115.406C24.401 116.25 25.2656 116.672 26.3906 116.672C27.4844 116.672 28.3385 116.255 28.9531 115.422C29.5677 114.578 29.875 113.234 29.875 111.391C29.875 109.818 29.5677 108.599 28.9531 107.734C28.3385 106.87 27.474 106.438 26.3594 106.438C25.2552 106.438 24.401 106.87 23.7969 107.734C23.1927 108.589 22.8906 109.917 22.8906 111.719ZM46.6719 107.328C46.0573 107.245 45.5156 107.203 45.0469 107.203C43.3385 107.203 42.2188 107.781 41.6875 108.938V120H37.1719V103.094H41.4375L41.5625 105.109C42.4688 103.557 43.724 102.781 45.3281 102.781C45.8281 102.781 46.2969 102.849 46.7344 102.984L46.6719 107.328ZM56.3281 120.312C53.849 120.312 51.8281 119.552 50.2656 118.031C48.7135 116.51 47.9375 114.484 47.9375 111.953V111.516C47.9375 109.818 48.2656 108.302 48.9219 106.969C49.5781 105.625 50.5052 104.594 51.7031 103.875C52.9115 103.146 54.2865 102.781 55.8281 102.781C58.1406 102.781 59.9583 103.51 61.2812 104.969C62.6146 106.427 63.2812 108.495 63.2812 111.172V113.016H52.5156C52.6615 114.12 53.099 115.005 53.8281 115.672C54.5677 116.339 55.5 116.672 56.625 116.672C58.3646 116.672 59.724 116.042 60.7031 114.781L62.9219 117.266C62.2448 118.224 61.3281 118.974 60.1719 119.516C59.0156 120.047 57.7344 120.312 56.3281 120.312ZM55.8125 106.438C54.9167 106.438 54.1875 106.74 53.625 107.344C53.0729 107.948 52.7188 108.812 52.5625 109.938H58.8438V109.578C58.8229 108.578 58.5521 107.807 58.0312 107.266C57.5104 106.714 56.7708 106.438 55.8125 106.438ZM70.0938 103.094L70.2344 104.984C71.4323 103.516 73.0521 102.781 75.0938 102.781C77.2708 102.781 78.7656 103.641 79.5781 105.359C80.7656 103.641 82.4583 102.781 84.6562 102.781C86.4896 102.781 87.8542 103.318 88.75 104.391C89.6458 105.453 90.0938 107.057 90.0938 109.203V120H85.5625V109.219C85.5625 108.26 85.375 107.562 85 107.125C84.625 106.677 83.9635 106.453 83.0156 106.453C81.6615 106.453 80.724 107.099 80.2031 108.391L80.2188 120H75.7031V109.234C75.7031 108.255 75.5104 107.547 75.125 107.109C74.7396 106.672 74.0833 106.453 73.1562 106.453C71.875 106.453 70.9479 106.984 70.375 108.047V120H65.8594V103.094H70.0938ZM106.828 120H102.141V97.25H106.828V120ZM126.109 111.703C126.109 114.307 125.516 116.396 124.328 117.969C123.151 119.531 121.557 120.312 119.547 120.312C117.839 120.312 116.458 119.719 115.406 118.531V126.5H110.891V103.094H115.078L115.234 104.75C116.328 103.438 117.755 102.781 119.516 102.781C121.599 102.781 123.219 103.552 124.375 105.094C125.531 106.635 126.109 108.76 126.109 111.469V111.703ZM121.594 111.375C121.594 109.802 121.312 108.589 120.75 107.734C120.198 106.88 119.391 106.453 118.328 106.453C116.911 106.453 115.938 106.995 115.406 108.078V115C115.958 116.115 116.943 116.672 118.359 116.672C120.516 116.672 121.594 114.906 121.594 111.375ZM138.078 115.328C138.078 114.776 137.802 114.344 137.25 114.031C136.708 113.708 135.833 113.422 134.625 113.172C130.604 112.328 128.594 110.62 128.594 108.047C128.594 106.547 129.214 105.297 130.453 104.297C131.703 103.286 133.333 102.781 135.344 102.781C137.49 102.781 139.203 103.286 140.484 104.297C141.776 105.307 142.422 106.62 142.422 108.234H137.906C137.906 107.589 137.698 107.057 137.281 106.641C136.865 106.214 136.214 106 135.328 106C134.568 106 133.979 106.172 133.562 106.516C133.146 106.859 132.938 107.297 132.938 107.828C132.938 108.328 133.172 108.734 133.641 109.047C134.12 109.349 134.922 109.615 136.047 109.844C137.172 110.062 138.12 110.312 138.891 110.594C141.276 111.469 142.469 112.984 142.469 115.141C142.469 116.682 141.807 117.932 140.484 118.891C139.161 119.839 137.453 120.312 135.359 120.312C133.943 120.312 132.682 120.062 131.578 119.562C130.484 119.052 129.625 118.359 129 117.484C128.375 116.599 128.062 115.646 128.062 114.625H132.344C132.385 115.427 132.682 116.042 133.234 116.469C133.786 116.896 134.526 117.109 135.453 117.109C136.318 117.109 136.969 116.948 137.406 116.625C137.854 116.292 138.078 115.859 138.078 115.328ZM155.516 118.281C154.401 119.635 152.859 120.312 150.891 120.312C149.078 120.312 147.693 119.792 146.734 118.75C145.786 117.708 145.302 116.182 145.281 114.172V103.094H149.797V114.016C149.797 115.776 150.599 116.656 152.203 116.656C153.734 116.656 154.786 116.125 155.359 115.062V103.094H159.891V120H155.641L155.516 118.281ZM167.531 103.094L167.672 104.984C168.87 103.516 170.49 102.781 172.531 102.781C174.708 102.781 176.203 103.641 177.016 105.359C178.203 103.641 179.896 102.781 182.094 102.781C183.927 102.781 185.292 103.318 186.188 104.391C187.083 105.453 187.531 107.057 187.531 109.203V120H183V109.219C183 108.26 182.812 107.562 182.438 107.125C182.062 106.677 181.401 106.453 180.453 106.453C179.099 106.453 178.161 107.099 177.641 108.391L177.656 120H173.141V109.234C173.141 108.255 172.948 107.547 172.562 107.109C172.177 106.672 171.521 106.453 170.594 106.453C169.312 106.453 168.385 106.984 167.812 108.047V120H163.297V103.094H167.531ZM199.281 120V97.25H206.281C208.281 97.25 210.068 97.7031 211.641 98.6094C213.224 99.5052 214.458 100.786 215.344 102.453C216.229 104.109 216.672 105.995 216.672 108.109V109.156C216.672 111.271 216.234 113.151 215.359 114.797C214.495 116.443 213.271 117.719 211.688 118.625C210.104 119.531 208.318 119.99 206.328 120H199.281ZM203.969 101.047V116.234H206.234C208.068 116.234 209.469 115.635 210.438 114.438C211.406 113.24 211.901 111.526 211.922 109.297V108.094C211.922 105.781 211.443 104.031 210.484 102.844C209.526 101.646 208.125 101.047 206.281 101.047H203.969ZM219.094 111.391C219.094 109.714 219.417 108.219 220.062 106.906C220.708 105.594 221.635 104.578 222.844 103.859C224.062 103.141 225.474 102.781 227.078 102.781C229.359 102.781 231.219 103.479 232.656 104.875C234.104 106.271 234.911 108.167 235.078 110.562L235.109 111.719C235.109 114.312 234.385 116.396 232.938 117.969C231.49 119.531 229.547 120.312 227.109 120.312C224.672 120.312 222.724 119.531 221.266 117.969C219.818 116.406 219.094 114.281 219.094 111.594V111.391ZM223.609 111.719C223.609 113.323 223.911 114.552 224.516 115.406C225.12 116.25 225.984 116.672 227.109 116.672C228.203 116.672 229.057 116.255 229.672 115.422C230.286 114.578 230.594 113.234 230.594 111.391C230.594 109.818 230.286 108.599 229.672 107.734C229.057 106.87 228.193 106.438 227.078 106.438C225.974 106.438 225.12 106.87 224.516 107.734C223.911 108.589 223.609 109.917 223.609 111.719ZM242.656 120H238.125V96H242.656V120ZM245.688 111.391C245.688 109.714 246.01 108.219 246.656 106.906C247.302 105.594 248.229 104.578 249.438 103.859C250.656 103.141 252.068 102.781 253.672 102.781C255.953 102.781 257.812 103.479 259.25 104.875C260.698 106.271 261.505 108.167 261.672 110.562L261.703 111.719C261.703 114.312 260.979 116.396 259.531 117.969C258.083 119.531 256.141 120.312 253.703 120.312C251.266 120.312 249.318 119.531 247.859 117.969C246.411 116.406 245.688 114.281 245.688 111.594V111.391ZM250.203 111.719C250.203 113.323 250.505 114.552 251.109 115.406C251.714 116.25 252.578 116.672 253.703 116.672C254.797 116.672 255.651 116.255 256.266 115.422C256.88 114.578 257.188 113.234 257.188 111.391C257.188 109.818 256.88 108.599 256.266 107.734C255.651 106.87 254.786 106.438 253.672 106.438C252.568 106.438 251.714 106.87 251.109 107.734C250.505 108.589 250.203 109.917 250.203 111.719ZM273.984 107.328C273.37 107.245 272.828 107.203 272.359 107.203C270.651 107.203 269.531 107.781 269 108.938V120H264.484V103.094H268.75L268.875 105.109C269.781 103.557 271.036 102.781 272.641 102.781C273.141 102.781 273.609 102.849 274.047 102.984L273.984 107.328ZM296.234 114.031C296.234 113.146 295.922 112.469 295.297 112C294.672 111.521 293.547 111.021 291.922 110.5C290.297 109.969 289.01 109.448 288.062 108.938C285.479 107.542 284.188 105.661 284.188 103.297C284.188 102.068 284.531 100.974 285.219 100.016C285.917 99.0469 286.911 98.2917 288.203 97.75C289.505 97.2083 290.964 96.9375 292.578 96.9375C294.203 96.9375 295.651 97.2344 296.922 97.8281C298.193 98.4115 299.177 99.2396 299.875 100.312C300.583 101.385 300.938 102.604 300.938 103.969H296.25C296.25 102.927 295.922 102.12 295.266 101.547C294.609 100.964 293.688 100.672 292.5 100.672C291.354 100.672 290.464 100.917 289.828 101.406C289.193 101.885 288.875 102.521 288.875 103.312C288.875 104.052 289.245 104.672 289.984 105.172C290.734 105.672 291.833 106.141 293.281 106.578C295.948 107.38 297.891 108.375 299.109 109.562C300.328 110.75 300.938 112.229 300.938 114C300.938 115.969 300.193 117.516 298.703 118.641C297.214 119.755 295.208 120.312 292.688 120.312C290.938 120.312 289.344 119.995 287.906 119.359C286.469 118.714 285.37 117.833 284.609 116.719C283.859 115.604 283.484 114.312 283.484 112.844H288.188C288.188 115.354 289.688 116.609 292.688 116.609C293.802 116.609 294.672 116.385 295.297 115.938C295.922 115.479 296.234 114.844 296.234 114.031ZM308.594 120H304.062V103.094H308.594V120ZM303.797 98.7188C303.797 98.0417 304.021 97.4844 304.469 97.0469C304.927 96.6094 305.547 96.3906 306.328 96.3906C307.099 96.3906 307.714 96.6094 308.172 97.0469C308.63 97.4844 308.859 98.0417 308.859 98.7188C308.859 99.4062 308.625 99.9688 308.156 100.406C307.698 100.844 307.089 101.062 306.328 101.062C305.568 101.062 304.953 100.844 304.484 100.406C304.026 99.9688 303.797 99.4062 303.797 98.7188ZM317.734 98.9375V103.094H320.625V106.406H317.734V114.844C317.734 115.469 317.854 115.917 318.094 116.188C318.333 116.458 318.792 116.594 319.469 116.594C319.969 116.594 320.411 116.557 320.797 116.484V119.906C319.911 120.177 319 120.312 318.062 120.312C314.896 120.312 313.281 118.714 313.219 115.516V106.406H310.75V103.094H313.219V98.9375H317.734ZM344.25 115.312H336.031L334.469 120H329.484L337.953 97.25H342.297L350.812 120H345.828L344.25 115.312ZM337.297 111.516H342.984L340.125 103L337.297 111.516ZM356.125 103.094L356.266 104.984C357.464 103.516 359.083 102.781 361.125 102.781C363.302 102.781 364.797 103.641 365.609 105.359C366.797 103.641 368.49 102.781 370.688 102.781C372.521 102.781 373.885 103.318 374.781 104.391C375.677 105.453 376.125 107.057 376.125 109.203V120H371.594V109.219C371.594 108.26 371.406 107.562 371.031 107.125C370.656 106.677 369.995 106.453 369.047 106.453C367.693 106.453 366.755 107.099 366.234 108.391L366.25 120H361.734V109.234C361.734 108.255 361.542 107.547 361.156 107.109C360.771 106.672 360.115 106.453 359.188 106.453C357.906 106.453 356.979 106.984 356.406 108.047V120H351.891V103.094H356.125ZM387.391 120.312C384.911 120.312 382.891 119.552 381.328 118.031C379.776 116.51 379 114.484 379 111.953V111.516C379 109.818 379.328 108.302 379.984 106.969C380.641 105.625 381.568 104.594 382.766 103.875C383.974 103.146 385.349 102.781 386.891 102.781C389.203 102.781 391.021 103.51 392.344 104.969C393.677 106.427 394.344 108.495 394.344 111.172V113.016H383.578C383.724 114.12 384.161 115.005 384.891 115.672C385.63 116.339 386.562 116.672 387.688 116.672C389.427 116.672 390.786 116.042 391.766 114.781L393.984 117.266C393.307 118.224 392.391 118.974 391.234 119.516C390.078 120.047 388.797 120.312 387.391 120.312ZM386.875 106.438C385.979 106.438 385.25 106.74 384.688 107.344C384.135 107.948 383.781 108.812 383.625 109.938H389.906V109.578C389.885 108.578 389.615 107.807 389.094 107.266C388.573 106.714 387.833 106.438 386.875 106.438ZM402.328 98.9375V103.094H405.219V106.406H402.328V114.844C402.328 115.469 402.448 115.917 402.688 116.188C402.927 116.458 403.385 116.594 404.062 116.594C404.562 116.594 405.005 116.557 405.391 116.484V119.906C404.505 120.177 403.594 120.312 402.656 120.312C399.49 120.312 397.875 118.714 397.812 115.516V106.406H395.344V103.094H397.812V98.9375H402.328Z" fill="#F8F8F8"/>
</svg>
